# xmcd CD database file
#
# Track frame offsets:
#	150
#	4487
#	27447
#	75320
#	102107
#	131480
#	164645
#	194880
#	212630
#	242495
#
# Disc length: 3707 seconds
#
# Revision: 0
# Processed by: cddbd v1.5.2PL0 Copyright (c) Steve Scherf et al.
# Submitted via: CDex 1.70beta3
#
DISCID=840e790a
DTITLE=Eijiro Nakagawa - E
DYEAR=2007
DGENRE=Jazz
TTITLE0=I Am
TTITLE1=Chardash
TTITLE2=Journey Of A Rose
TTITLE3=Solid Of Revolution
TTITLE4=You're Not Alone
TTITLE5=Secret Gate
TTITLE6=Endless Summer
TTITLE7=Overjoyed
TTITLE8=Air On G
TTITLE9=Into The Sky
EXTD=YEAR: 2007
EXTT0=
EXTT1=
EXTT2=
EXTT3=
EXTT4=
EXTT5=
EXTT6=
EXTT7=
EXTT8=
EXTT9=
PLAYORDER=
